# xmcd CD database file
#
# Track frame offsets:
#	150
#	20565
#	40487
#	53180
#	70717
#	88252
#	108252
#	120027
#	136092
#	157660
#	175397
#	194462
#
# Disc length: 2757 seconds
#
# Revision: 1
# Processed by: cddbd v1.4PL0 Copyright (c) Steve Scherf et al.
# Submitted via: CDex 1.40Beta9
#
DISCID=960ac30c
DTITLE=Sleepy John Estes - Broke And Hungry
DYEAR=1964
DGENRE=Blues
TTITLE0=Broke And Hungry
TTITLE1=Black Mattie
TTITLE2=3:00 Morning Blues
TTITLE3=Beale Street Sugar
TTITLE4=Everybody Oughta Change
TTITLE5=Olie Blues
TTITLE6=So Glad I'm Livin'
TTITLE7=Al Rawls
TTITLE8=Freedom Loan
TTITLE9=The Girl I Love
TTITLE10=Electric Chair
TTITLE11=Sleepy John's Twist
EXTD=YEAR: 1964 ID3G: 0
EXTT0=
EXTT1=
EXTT2=
EXTT3=
EXTT4=
EXTT5=
EXTT6=
EXTT7=
EXTT8=
EXTT9=
EXTT10=
EXTT11=
PLAYORDER=
